<?xml version="1.0" encoding="UTF-8" standalone="no"?>
<!-- Created with Inkscape (http://www.inkscape.org/) -->

<svg
   xmlns:dc="http://purl.org/dc/elements/1.1/"
   xmlns:cc="http://creativecommons.org/ns#"
   xmlns:rdf="http://www.w3.org/1999/02/22-rdf-syntax-ns#"
   xmlns:svg="http://www.w3.org/2000/svg"
   xmlns="http://www.w3.org/2000/svg"
   xmlns:sodipodi="http://sodipodi.sourceforge.net/DTD/sodipodi-0.dtd"
   xmlns:inkscape="http://www.inkscape.org/namespaces/inkscape"
   width="400"
   height="200"
   id="svg2"
   version="1.1"
   inkscape:version="0.48.3.1 r9886"
   sodipodi:docname="brokenBridge.svg">
  <defs
     id="defs4" />
  <sodipodi:namedview
     id="base"
     pagecolor="#ffffff"
     bordercolor="#666666"
     borderopacity="1.0"
     inkscape:pageopacity="0.0"
     inkscape:pageshadow="2"
     inkscape:zoom="1.4"
     inkscape:cx="224.5166"
     inkscape:cy="36.096129"
     inkscape:document-units="px"
     inkscape:current-layer="layer1"
     showgrid="false"
     inkscape:window-width="1366"
     inkscape:window-height="718"
     inkscape:window-x="0"
     inkscape:window-y="1"
     inkscape:window-maximized="1" />
  <metadata
     id="metadata7">
    <rdf:RDF>
      <cc:Work
         rdf:about="">
        <dc:format>image/svg+xml</dc:format>
        <dc:type
           rdf:resource="http://purl.org/dc/dcmitype/StillImage" />
        <dc:title></dc:title>
      </cc:Work>
    </rdf:RDF>
  </metadata>
  <g
     inkscape:label="Layer 1"
     inkscape:groupmode="layer"
     id="layer1"
     transform="translate(0,-852.36217)">
    <rect
       style="fill:#000000;fill-opacity:1;stroke:none"
       id="rect2985"
       width="100"
       height="20"
       x="0"
       y="993.36713" />
    <rect
       style="fill:#000000;fill-opacity:1;stroke:none"
       id="rect2985-0"
       width="100"
       height="8.8883219"
       x="-489.71875"
       y="922.62885"
       transform="matrix(0.8891198,-0.45767453,0.45767453,0.8891198,0,0)" />
    <rect
       style="fill:#000000;fill-opacity:1;stroke:none"
       id="rect2985-6"
       width="100"
       height="6.8680167"
       x="0"
       y="950.961" />
    <rect
       style="fill:#000000;fill-opacity:1;stroke:none"
       id="rect2985-6-4"
       width="39.390846"
       height="6.8680167"
       x="-995.28082"
       y="18.789347"
       transform="matrix(0,-1,1,0,0,0)" />
    <rect
       style="fill:#000000;fill-opacity:1;stroke:none"
       id="rect2985-6-4-8"
       width="39.390846"
       height="6.8680167"
       x="-994.47375"
       y="63.845207"
       transform="matrix(0,-1,1,0,0,0)" />
    <path
       style="fill:#000000;fill-opacity:1;stroke:none"
       d="m 98.80712,993.31009 45.73186,28.53721 -12.31429,6.1602 -33.482197,-14.7424 z"
       id="rect2985-4"
       inkscape:connector-curvature="0"
       sodipodi:nodetypes="ccccc" />
    <path
       style="fill:#000000;fill-opacity:1;stroke:none"
       d="m 97.957698,950.41707 60.545192,33.28054 -11.76416,0.48532 -50.159158,-27.21961 z"
       id="rect2985-6-6"
       inkscape:connector-curvature="0"
       sodipodi:nodetypes="ccccc" />
    <rect
       style="fill:#000000;fill-opacity:1;stroke:none"
       id="rect2985-6-4-7"
       width="39.390846"
       height="6.8680167"
       x="-920.64771"
       y="397.76633"
       transform="matrix(0.30250073,-0.95314915,0.95314915,0.30250073,0,0)" />
    <rect
       style="fill:#000000;fill-opacity:1;stroke:none"
       id="rect2985-67"
       width="100"
       height="20"
       x="-400.53113"
       y="993.36707"
       transform="scale(-1,1)" />
    <rect
       style="fill:#000000;fill-opacity:1;stroke:none"
       id="rect2985-0-8"
       width="100"
       height="8.8883219"
       x="-845.83893"
       y="739.31598"
       transform="matrix(-0.8891198,-0.45767453,-0.45767453,0.8891198,0,0)" />
    <rect
       style="fill:#000000;fill-opacity:1;stroke:none"
       id="rect2985-6-8"
       width="100"
       height="6.8680167"
       x="-400.53113"
       y="950.96094"
       transform="scale(-1,1)" />
    <rect
       style="fill:#000000;fill-opacity:1;stroke:none"
       id="rect2985-6-4-5"
       width="39.390846"
       height="6.8680167"
       x="-995.28076"
       y="-381.74179"
       transform="matrix(0,-1,-1,0,0,0)" />
    <rect
       style="fill:#000000;fill-opacity:1;stroke:none"
       id="rect2985-6-4-8-7"
       width="39.390846"
       height="6.8680167"
       x="-994.47369"
       y="-336.68591"
       transform="matrix(0,-1,-1,0,0,0)" />
    <path
       style="fill:#000000;fill-opacity:1;stroke:none"
       d="m 301.21011,993.31005 -56.2822,28.53725 15.1552,6.1602 41.20654,-14.7424 z"
       id="rect2985-4-6"
       inkscape:connector-curvature="0"
       sodipodi:nodetypes="ccccc" />
    <rect
       style="fill:#000000;fill-opacity:1;stroke:none"
       id="rect2985-6-4-7-6"
       width="39.390846"
       height="6.8680167"
       x="-1041.8086"
       y="16.000399"
       transform="matrix(-0.30250073,-0.95314915,-0.95314915,0.30250073,0,0)" />
  </g>
</svg>
