<?xml version="1.0" encoding="UTF-8" standalone="no"?>
<!-- Created with Inkscape (http://www.inkscape.org/) -->

<svg
   xmlns:dc="http://purl.org/dc/elements/1.1/"
   xmlns:cc="http://creativecommons.org/ns#"
   xmlns:rdf="http://www.w3.org/1999/02/22-rdf-syntax-ns#"
   xmlns:svg="http://www.w3.org/2000/svg"
   xmlns="http://www.w3.org/2000/svg"
   xmlns:sodipodi="http://sodipodi.sourceforge.net/DTD/sodipodi-0.dtd"
   xmlns:inkscape="http://www.inkscape.org/namespaces/inkscape"
   width="68"
   height="42"
   id="svg2"
   version="1.1"
   inkscape:version="0.48.3.1 r9886"
   sodipodi:docname="busBody.svg">
  <defs
     id="defs4" />
  <sodipodi:namedview
     id="base"
     pagecolor="#ffffff"
     bordercolor="#666666"
     borderopacity="1.0"
     inkscape:pageopacity="0.0"
     inkscape:pageshadow="2"
     inkscape:zoom="1.7421875"
     inkscape:cx="222.28804"
     inkscape:cy="6.7341238"
     inkscape:document-units="px"
     inkscape:current-layer="layer1"
     showgrid="false"
     inkscape:window-width="1366"
     inkscape:window-height="718"
     inkscape:window-x="0"
     inkscape:window-y="1"
     inkscape:window-maximized="1" />
  <metadata
     id="metadata7">
    <rdf:RDF>
      <cc:Work
         rdf:about="">
        <dc:format>image/svg+xml</dc:format>
        <dc:type
           rdf:resource="http://purl.org/dc/dcmitype/StillImage" />
        <dc:title></dc:title>
      </cc:Work>
    </rdf:RDF>
  </metadata>
  <g
     inkscape:label="Layer 1"
     inkscape:groupmode="layer"
     id="layer1"
     transform="translate(0,-1010.3622)">
    <path
       sodipodi:type="arc"
       style="fill:#ffffff;stroke:#000000;stroke-opacity:1"
       id="path3057"
       sodipodi:cx="254.05336"
       sodipodi:cy="98.958115"
       sodipodi:rx="3.0304577"
       sodipodi:ry="3.7880721"
       d="m 257.08382,98.958115 a 3.0304577,3.7880721 0 1 1 -6.06092,0 3.0304577,3.7880721 0 1 1 6.06092,0 z"
       transform="translate(-189.59121,924.23591)" />
    <path
       style="fill:#000000"
       d="m 6.25,1010.9247 c -3.45539,0 -6.25,3.5425 -6.25,7.9375 l 0,25.5625 c 0,4.3949 2.79461,7.9375 6.25,7.9375 l 10.71875,0 c -0.0969,-0.7877 -0.15625,-1.5924 -0.15625,-2.4063 0,-10.7628 8.7059,-19.4687 19.46875,-19.4687 10.76285,0 19.5,8.7059 19.5,19.4687 0,0.8136 -0.0594,1.6189 -0.15625,2.4063 l 4,0 c 3.45539,0 6.21875,-3.5426 6.21875,-7.9375 l 0,-25.5625 c 0,-4.395 -2.76336,-7.9375 -6.21875,-7.9375 l -53.375,0 z"
       id="rect2985"
       inkscape:connector-curvature="0" />
  </g>
</svg>
