<?xml version="1.0" encoding="UTF-8" standalone="no"?>
<!-- Created with Inkscape (http://www.inkscape.org/) -->

<svg
   xmlns:dc="http://purl.org/dc/elements/1.1/"
   xmlns:cc="http://creativecommons.org/ns#"
   xmlns:rdf="http://www.w3.org/1999/02/22-rdf-syntax-ns#"
   xmlns:svg="http://www.w3.org/2000/svg"
   xmlns="http://www.w3.org/2000/svg"
   xmlns:sodipodi="http://sodipodi.sourceforge.net/DTD/sodipodi-0.dtd"
   xmlns:inkscape="http://www.inkscape.org/namespaces/inkscape"
   width="128"
   height="86"
   id="svg2988"
   version="1.1"
   inkscape:version="0.48.3.1 r9886"
   sodipodi:docname="New document 1">
  <defs
     id="defs2990" />
  <sodipodi:namedview
     id="base"
     pagecolor="#ffffff"
     bordercolor="#666666"
     borderopacity="1.0"
     inkscape:pageopacity="0.0"
     inkscape:pageshadow="2"
     inkscape:zoom="2.8"
     inkscape:cx="72.358521"
     inkscape:cy="40.172117"
     inkscape:document-units="px"
     inkscape:current-layer="layer1"
     showgrid="false"
     inkscape:window-width="1366"
     inkscape:window-height="718"
     inkscape:window-x="0"
     inkscape:window-y="1"
     inkscape:window-maximized="1" />
  <metadata
     id="metadata2993">
    <rdf:RDF>
      <cc:Work
         rdf:about="">
        <dc:format>image/svg+xml</dc:format>
        <dc:type
           rdf:resource="http://purl.org/dc/dcmitype/StillImage" />
        <dc:title></dc:title>
      </cc:Work>
    </rdf:RDF>
  </metadata>
  <g
     inkscape:label="Layer 1"
     inkscape:groupmode="layer"
     id="layer1"
     transform="translate(0,-966.36217)">
    <path
       style="fill:#000000;stroke:none"
       d="M 15.40625,966.73719 C 6.8719763,966.73719 0,973.60917 0,982.14344 l 0,54.81256 c 0,8.5342 6.8719763,15.4062 15.40625,15.4062 l 81.28125,0 c 8.53427,0 15.40625,-6.872 15.40625,-15.4062 l 0,-54.81256 c 0,-8.53427 -6.87198,-15.40625 -15.40625,-15.40625 l -81.28125,0 z m 61.75,15.75 c 1.121083,2e-5 2.283842,0.10809 3.46875,0.28125 1.184882,0.16408 2.389307,0.41278 3.65625,0.75 l 0,4.3125 c -1.121109,-0.50129 -2.214858,-0.86978 -3.28125,-1.125 -1.066419,-0.25519 -2.052095,-0.40623 -3,-0.40625 -1.257822,2e-5 -2.210946,0.18491 -2.8125,0.53125 -0.60157,0.34637 -0.906257,0.89585 -0.90625,1.625 -7e-6,0.54689 0.223951,0.97137 0.625,1.28125 0.410148,0.30079 1.152335,0.56251 2.21875,0.78125 l 2.21875,0.4375 c 2.269517,0.45574 3.886703,1.16407 4.84375,2.09375 0.957014,0.9297 1.437482,2.22397 1.4375,3.9375 -1.8e-5,2.25128 -0.660174,3.92841 -2,5.03131 -1.330744,1.0937 -3.381523,1.6562 -6.125,1.6562 -1.29428,0 -2.571622,-0.1289 -3.875,-0.375 -1.30339,-0.2461 -2.634118,-0.6107 -3.9375,-1.0937 l 0,-4.43756 c 1.303382,0.69271 2.569006,1.20704 3.78125,1.56253 1.221347,0.3463 2.401033,0.5312 3.53125,0.5312 1.148427,0 2.045561,-0.1797 2.65625,-0.5625 0.610664,-0.38279 0.906237,-0.94529 0.90625,-1.65623 -1.3e-5,-0.63802 -0.205742,-1.12239 -0.625,-1.46875 -0.410168,-0.34635 -1.229178,-0.66406 -2.46875,-0.9375 l -2.0625,-0.4375 c -2.041673,-0.43749 -3.520838,-1.13671 -4.46875,-2.09375 -0.938805,-0.95702 -1.406252,-2.25259 -1.40625,-3.875 -2e-6,-2.03254 0.656247,-3.59373 1.96875,-4.6875 1.312495,-1.09373 3.195305,-1.65623 5.65625,-1.65625 z M 26,982.86219 l 7.90625,0 c 2.834622,2e-5 4.889308,0.4245 6.15625,1.28125 1.276024,0.85679 1.906231,2.2383 1.90625,4.125 -1.9e-5,0.9935 -0.222675,1.82944 -0.6875,2.53125 -0.464861,0.69272 -1.147152,1.22527 -2.03125,1.5625 1.130191,0.32814 2.005191,0.92839 2.625,1.8125 0.619773,0.88412 0.937481,1.96485 0.9375,3.25 -1.9e-5,1.96878 -0.66929,3.44011 -2,4.40631 -1.330745,0.9661 -3.346368,1.4375 -6.0625,1.4375 l -8.75,0 0,-20.40631 z m 21.34375,0 5.25,0 0,12.25 c -8e-6,1.6862 0.265617,2.89584 0.8125,3.625 0.55598,0.72008 1.470042,1.06248 2.71875,1.06248 1.2578,0 2.171861,-0.3424 2.71875,-1.06248 0.555975,-0.72916 0.812485,-1.9388 0.8125,-3.625 l 0,-12.25 5.28125,0 0,12.25 c -2e-5,2.88933 -0.738301,5.02481 -2.1875,6.43751 -1.449235,1.4128 -3.65366,2.125 -6.625,2.125 -2.962248,0 -5.175787,-0.7122 -6.625,-2.125 -1.449222,-1.4127 -2.156253,-3.54818 -2.15625,-6.43751 l 0,-12.25 z m -16.0625,3.59375 0,4.3125 2.90625,0 c 0.829416,10e-6 1.446602,-0.1979 1.875,-0.5625 0.428372,-0.36457 0.656237,-0.8828 0.65625,-1.59375 -1.3e-5,-0.70181 -0.227878,-1.22915 -0.65625,-1.59375 -0.428398,-0.37368 -1.045584,-0.56248 -1.875,-0.5625 l -2.90625,0 z m 0,7.90625 0,5.34378 3.09375,0 c 1.05728,0 1.846341,-0.2409 2.375,-0.68753 0.537747,-0.44661 0.781236,-1.1289 0.78125,-2.03125 -1.4e-5,-0.88411 -0.252618,-1.53124 -0.78125,-1.96875 -0.528659,-0.44661 -1.308606,-0.65624 -2.375,-0.65625 l -3.09375,0 z m -7.84375,18.65631 c 1.121083,0 2.252592,0.077 3.4375,0.25 1.184882,0.1641 2.420557,0.4128 3.6875,0.75 l 0,4.3437 c -1.121109,-0.5013 -2.214858,-0.901 -3.28125,-1.1562 -1.066419,-0.2552 -2.083345,-0.375 -3.03125,-0.375 -1.257822,0 -2.179696,0.1849 -2.78125,0.5312 -0.60157,0.3464 -0.906257,0.8646 -0.90625,1.5938 -7e-6,0.5469 0.192701,0.9713 0.59375,1.2812 0.410148,0.3008 1.152335,0.5625 2.21875,0.7813 l 2.25,0.4687 c 2.269517,0.4558 3.886703,1.1328 4.84375,2.0625 0.957014,0.9297 1.437482,2.2552 1.4375,3.9688 -1.8e-5,2.2513 -0.691424,3.9284 -2.03125,5.0312 -1.330744,1.0938 -3.350273,1.6563 -6.09375,1.6563 -1.29428,0 -2.602872,-0.1289 -3.90625,-0.375 -1.30339,-0.2461 -2.602868,-0.6107 -3.90625,-1.0938 l 0,-4.4375 c 1.303382,0.6927 2.569006,1.2071 3.78125,1.5625 1.221347,0.3464 2.401033,0.5313 3.53125,0.5313 1.148427,0 2.014311,-0.211 2.625,-0.5938 0.610664,-0.3828 0.906237,-0.914 0.90625,-1.625 -1.3e-5,-0.638 -0.205742,-1.1536 -0.625,-1.5 -0.410168,-0.3463 -1.229178,-0.6328 -2.46875,-0.9062 l -2.03125,-0.4688 c -2.041673,-0.4375 -3.552088,-1.1367 -4.5,-2.0937 -0.938805,-0.9571 -1.406252,-2.2214 -1.40625,-3.8438 -2e-6,-2.0325 0.656247,-3.625 1.96875,-4.7187 1.312495,-1.0938 3.226555,-1.625 5.6875,-1.625 z m 41.5,0 c 3.281235,0 5.859357,0.9349 7.71875,2.8125 1.859354,1.8776 2.781228,4.4726 2.78125,7.7812 -2.2e-5,3.2995 -0.921896,5.9037 -2.78125,7.7813 -1.859393,1.8776 -4.437515,2.8125 -7.71875,2.8125 -3.272144,0 -5.850266,-0.9349 -7.71875,-2.8125 -1.859377,-1.8776 -2.781251,-4.4818 -2.78125,-7.7813 -10e-7,-3.3086 0.921873,-5.9036 2.78125,-7.7812 1.868484,-1.8776 4.446606,-2.8125 7.71875,-2.8125 z m -30.84375,0.375 18.8125,0 0,3.9687 -6.75,0 0,16.4375 -5.28125,0 0,-16.4375 -6.78125,0 0,-3.9687 z m 45.3125,0 8.75,0 c 2.597642,0 4.583317,0.5612 5.96875,1.7187 1.394513,1.1485 2.093731,2.8047 2.09375,4.9375 -1.9e-5,2.142 -0.699237,3.78 -2.09375,4.9375 -1.385433,1.1485 -3.371108,1.7188 -5.96875,1.7188 l -3.46875,0 0,7.0937 -5.28125,0 0,-20.4062 z m -14.46875,3.4375 c -1.604177,0 -2.834644,0.5963 -3.71875,1.7812 -0.884122,1.1849 -1.343757,2.849 -1.34375,5 -7e-6,2.142 0.459628,3.8151 1.34375,5 0.884106,1.1849 2.114573,1.7813 3.71875,1.7813 1.613268,0 2.865871,-0.5964 3.75,-1.7813 0.884098,-1.1849 1.343733,-2.858 1.34375,-5 -1.7e-5,-2.151 -0.459652,-3.8151 -1.34375,-5 -0.884129,-1.1849 -2.136732,-1.7812 -3.75,-1.7812 z m 19.75,0.375 0,5.6875 2.90625,0 c 1.020822,0 1.787748,-0.2266 2.34375,-0.7188 0.555976,-0.5013 0.843736,-1.2135 0.84375,-2.125 -1.4e-5,-0.9114 -0.287774,-1.6328 -0.84375,-2.125 -0.556002,-0.4922 -1.322928,-0.7187 -2.34375,-0.7187 l -2.90625,0 z"
       id="rect2996"
       inkscape:connector-curvature="0" />
    <rect
       style="fill:#000000;stroke:#000000;stroke-width:0.56560975;stroke-opacity:1"
       id="rect3006"
       width="27.434391"
       height="35.697163"
       x="100.28281"
       y="979.03204" />
  </g>
</svg>
