<?xml version="1.0" encoding="UTF-8" standalone="no"?>
<!-- Created with Inkscape (http://www.inkscape.org/) -->

<svg
   xmlns:dc="http://purl.org/dc/elements/1.1/"
   xmlns:cc="http://creativecommons.org/ns#"
   xmlns:rdf="http://www.w3.org/1999/02/22-rdf-syntax-ns#"
   xmlns:svg="http://www.w3.org/2000/svg"
   xmlns="http://www.w3.org/2000/svg"
   xmlns:sodipodi="http://sodipodi.sourceforge.net/DTD/sodipodi-0.dtd"
   xmlns:inkscape="http://www.inkscape.org/namespaces/inkscape"
   width="256"
   height="74"
   id="svg2"
   version="1.1"
   inkscape:version="0.48.3.1 r9886"
   sodipodi:docname="New document 1">
  <defs
     id="defs4" />
  <sodipodi:namedview
     id="base"
     pagecolor="#ffffff"
     bordercolor="#666666"
     borderopacity="1.0"
     inkscape:pageopacity="0.0"
     inkscape:pageshadow="2"
     inkscape:zoom="1.7421875"
     inkscape:cx="222.28804"
     inkscape:cy="6.7341238"
     inkscape:document-units="px"
     inkscape:current-layer="layer1"
     showgrid="false"
     inkscape:window-width="1366"
     inkscape:window-height="718"
     inkscape:window-x="0"
     inkscape:window-y="1"
     inkscape:window-maximized="1" />
  <metadata
     id="metadata7">
    <rdf:RDF>
      <cc:Work
         rdf:about="">
        <dc:format>image/svg+xml</dc:format>
        <dc:type
           rdf:resource="http://purl.org/dc/dcmitype/StillImage" />
        <dc:title></dc:title>
      </cc:Work>
    </rdf:RDF>
  </metadata>
  <g
     inkscape:label="Layer 1"
     inkscape:groupmode="layer"
     id="layer1"
     transform="translate(0,-978.36218)">
    <path
       sodipodi:type="arc"
       style="fill:#ffffff;stroke:#000000;stroke-opacity:1"
       id="path3057"
       sodipodi:cx="254.05336"
       sodipodi:cy="98.958115"
       sodipodi:rx="3.0304577"
       sodipodi:ry="3.7880721"
       d="m 257.08382,98.958115 c 0,2.092095 -1.35678,3.788075 -3.03046,3.788075 -1.67368,0 -3.03046,-1.69598 -3.03046,-3.788075 0,-2.092095 1.35678,-3.788072 3.03046,-3.788072 1.67368,0 3.03046,1.695977 3.03046,3.788072 z"
       transform="translate(-1.7474619,924.23591)" />
    <path
       style="fill:#000000"
       d="m 194.09375,86.5625 c -3.45539,0 -6.25,3.542546 -6.25,7.9375 l 0,25.5625 c 0,4.39495 2.79461,7.9375 6.25,7.9375 l 10.71875,0 c -0.0969,-0.7877 -0.15625,-1.59235 -0.15625,-2.40625 0,-10.76285 8.7059,-19.46875 19.46875,-19.46875 10.76285,0 19.5,8.7059 19.5,19.46875 0,0.81356 -0.0594,1.61887 -0.15625,2.40625 l 4,0 c 3.45539,0 6.21875,-3.54255 6.21875,-7.9375 l 0,-25.5625 c 0,-4.394954 -2.76336,-7.9375 -6.21875,-7.9375 l -53.375,0 z"
       transform="translate(0,924.36218)"
       id="rect2985"
       inkscape:connector-curvature="0" />
    <path
       style="fill:#000000"
       d="M 17.34375,54.0625 C 12.863081,54.0625 0,57.84805 0,61.15625 l 0,60.875 C 0,125.33945 3.5818306,128 8.0625,128 l 21,0 c -0.09346,-0.7877 -0.1875,-1.59235 -0.1875,-2.40625 0,-10.7628 8.431271,-19.46875 18.8125,-19.46875 10.381228,0 18.8125,8.70595 18.8125,19.46875 0,0.8139 -0.09404,1.61855 -0.1875,2.40625 l 126.4375,0 c 4.48066,0 8.09375,-2.66055 8.09375,-5.96875 l 0,-62 c 0,-3.3082 4.66817,-5.96875 0.1875,-5.96875 l -183.6875,0 z m 156.46875,6.25 23.25,0 0,26.28125 -23.25,0 0,-26.28125 z M 18,65.875 l 32.3125,0 0,20.71875 -32.3125,0 0,-20.71875 z m 38.4375,0 23.25,0 0,20.71875 -23.25,0 0,-20.71875 z m 29.34375,0 23.25,0 0,20.71875 -23.25,0 0,-20.71875 z m 29.34375,0 23.25,0 0,20.71875 -23.25,0 0,-20.71875 z m 29.34375,0 23.25,0 0,20.71875 -23.25,0 0,-20.71875 z M 120.75,95.71875 c 1.79687,1.5e-5 3.15754,0.399754 4.0625,1.1875 0.91145,0.787773 1.39192,1.841157 1.4375,3.15625 l -2.90625,0.125 c -0.12371,-0.735666 -0.3711,-1.274728 -0.78125,-1.59375 -0.40365,-0.325509 -1.02996,-0.468738 -1.84375,-0.46875 -0.83985,1.2e-5 -1.49349,0.15496 -1.96875,0.5 -0.30599,0.221366 -0.46875,0.535167 -0.46875,0.90625 0,0.338552 0.15104,0.60287 0.4375,0.84375 0.36458,0.306 1.24999,0.63673 2.65625,0.96875 1.40624,0.33204 2.45442,0.67319 3.125,1.03125 0.67707,0.35157 1.18488,0.85027 1.5625,1.46875 0.3841,0.61199 0.59374,1.37631 0.59375,2.28125 -1e-5,0.82032 -0.23178,1.56511 -0.6875,2.28125 -0.45574,0.71615 -1.10418,1.27344 -1.9375,1.625 -0.83334,0.34505 -1.88152,0.5 -3.125,0.5 -1.8099,0 -3.1862,-0.41667 -4.15625,-1.25 -0.97005,-0.83984 -1.5612,-2.05468 -1.75,-3.65625 l 2.8125,-0.28125 c 0.16927,0.94401 0.51692,1.65104 1.03125,2.09375 0.52083,0.44271 1.21484,0.65625 2.09375,0.65625 0.93098,0 1.62499,-0.20312 2.09375,-0.59375 0.47525,-0.39713 0.71874,-0.84765 0.71875,-1.375 -1e-5,-0.33854 -0.0794,-0.64062 -0.28125,-0.875 -0.19532,-0.24088 -0.56772,-0.44921 -1.0625,-0.625 -0.33855,-0.11718 -1.10808,-0.32551 -2.3125,-0.625 -1.54948,-0.38411 -2.625,-0.84635 -3.25,-1.40625 -0.87891,-0.78775 -1.3125,-1.74218 -1.3125,-2.875 0,-0.729155 0.21484,-1.399728 0.625,-2.03125 0.41666,-0.638008 1.00651,-1.136705 1.78125,-1.46875 0.78125,-0.332017 1.71223,-0.499985 2.8125,-0.5 z m -44.4375,0.25 5.75,0 c 1.132804,1.4e-5 1.946605,0.05861 2.5,0.15625 0.559886,0.09116 1.063791,0.263035 1.5,0.5625 0.442697,0.299492 0.832019,0.717461 1.125,1.21875 0.292956,0.494804 0.437487,1.037772 0.4375,1.65625 -1.3e-5,0.67058 -0.197929,1.28386 -0.5625,1.84375 -0.358085,0.5599 -0.850272,1.00131 -1.46875,1.28125 0.872384,0.25391 1.562488,0.66928 2.03125,1.28125 0.468737,0.61198 0.687487,1.32943 0.6875,2.15625 -1.3e-5,0.65105 -0.162774,1.28776 -0.46875,1.90625 -0.299492,0.61198 -0.691419,1.09766 -1.21875,1.46875 -0.520845,0.36458 -1.169281,0.60286 -1.9375,0.6875 -0.48178,0.0521 -1.65756,0.0807 -3.5,0.0937 l -4.875,0 0,-14.3125 z m 19.6875,0 2.90625,0 0,7.75 c -4e-6,1.23047 0.02213,2.04167 0.09375,2.40625 0.123693,0.58594 0.412756,1.04818 0.875,1.40625 0.46874,0.35156 1.1302,0.53125 1.9375,0.53125 0.8203,0 1.42707,-0.16797 1.84375,-0.5 0.41666,-0.33854 0.66535,-0.76172 0.75,-1.25 0.0846,-0.48828 0.12499,-1.30468 0.125,-2.4375 l 0,-7.90625 2.90625,0 0,7.53125 c -1e-5,1.71876 -0.0938,2.91537 -0.25,3.625 -0.15626,0.70964 -0.45184,1.32422 -0.875,1.8125 -0.41668,0.48828 -0.95314,0.86328 -1.65625,1.15625 -0.70313,0.28646 -1.64845,0.4375 -2.78125,0.4375 -1.36719,0 -2.384119,-0.15625 -3.09375,-0.46875 -0.703128,-0.31901 -1.277347,-0.7487 -1.6875,-1.25 -0.410158,-0.50781 -0.682294,-1.00911 -0.8125,-1.5625 C 96.092446,106.42969 95.999999,105.19532 96,103.59375 l 0,-7.625 z m -16.78125,2.375 0,3.3125 1.90625,0 c 1.126295,1e-5 1.820304,0.001 2.09375,-0.0312 0.494783,-0.0586 0.876293,-0.25129 1.15625,-0.53125 0.286449,-0.28645 0.43749,-0.66275 0.4375,-1.125 -1e-5,-0.442698 -0.127614,-0.789051 -0.375,-1.0625 -0.240895,-0.279936 -0.611988,-0.441394 -1.09375,-0.5 -0.286467,-0.03254 -1.10808,-0.06249 -2.46875,-0.0625 l -1.65625,0 z m 0,5.6875 0,3.84375 2.6875,0 c 1.041659,0 1.688793,-0.0352 1.96875,-0.0937 0.429678,-0.0781 0.764313,-0.26302 1.03125,-0.5625 0.273427,-0.30599 0.43749,-0.71093 0.4375,-1.21875 -1e-5,-0.42968 -0.104177,-0.79427 -0.3125,-1.09375 -0.208343,-0.29947 -0.540374,-0.51953 -0.9375,-0.65625 -0.390634,-0.13671 -1.216154,-0.21874 -2.53125,-0.21875 l -2.34375,0 z"
       transform="translate(0,924.36218)"
       id="rect2989"
       inkscape:connector-curvature="0" />
  </g>
</svg>
