<?xml version="1.0" encoding="UTF-8" standalone="no"?>
<!-- Created with Inkscape (http://www.inkscape.org/) -->

<svg
   xmlns:dc="http://purl.org/dc/elements/1.1/"
   xmlns:cc="http://creativecommons.org/ns#"
   xmlns:rdf="http://www.w3.org/1999/02/22-rdf-syntax-ns#"
   xmlns:svg="http://www.w3.org/2000/svg"
   xmlns="http://www.w3.org/2000/svg"
   xmlns:sodipodi="http://sodipodi.sourceforge.net/DTD/sodipodi-0.dtd"
   xmlns:inkscape="http://www.inkscape.org/namespaces/inkscape"
   width="64"
   height="64"
   id="svg4098"
   version="1.1"
   inkscape:version="0.48.3.1 r9886"
   sodipodi:docname="jumpBlock.svg">
  <defs
     id="defs4100" />
  <sodipodi:namedview
     id="base"
     pagecolor="#ffffff"
     bordercolor="#666666"
     borderopacity="1.0"
     inkscape:pageopacity="0.0"
     inkscape:pageshadow="2"
     inkscape:zoom="1.979899"
     inkscape:cx="156.97087"
     inkscape:cy="56.842507"
     inkscape:document-units="px"
     inkscape:current-layer="layer1"
     showgrid="false"
     inkscape:window-width="1366"
     inkscape:window-height="718"
     inkscape:window-x="0"
     inkscape:window-y="1"
     inkscape:window-maximized="1" />
  <metadata
     id="metadata4103">
    <rdf:RDF>
      <cc:Work
         rdf:about="">
        <dc:format>image/svg+xml</dc:format>
        <dc:type
           rdf:resource="http://purl.org/dc/dcmitype/StillImage" />
        <dc:title />
      </cc:Work>
    </rdf:RDF>
  </metadata>
  <g
     inkscape:label="Layer 1"
     inkscape:groupmode="layer"
     id="layer1"
     transform="translate(0,-988.36218)">
    <path
       style="fill:#000000;fill-opacity:1;stroke:none"
       d="M 0 0 L 0 64 L 64 64 L 64 0 L 0 0 z M 32 8.125 L 39.125 20.46875 L 46.28125 32.84375 L 32 32.84375 L 17.71875 32.84375 L 24.875 20.46875 L 32 8.125 z M 20.5 40.96875 L 22.09375 40.96875 L 22.09375 45.96875 C 22.093745 46.620445 22.020828 47.11784 21.90625 47.46875 C 21.752274 47.927084 21.498368 48.283204 21.09375 48.5625 C 20.689124 48.838216 20.131182 48.96875 19.46875 48.96875 C 18.69173 48.96875 18.106444 48.777018 17.6875 48.34375 C 17.268554 47.906902 17.066081 47.247723 17.0625 46.40625 L 18.5625 46.25 C 18.580402 46.701174 18.635415 47.001304 18.75 47.1875 C 18.921873 47.470379 19.180336 47.625001 19.53125 47.625 C 19.885739 47.625001 20.134437 47.513022 20.28125 47.3125 C 20.428056 47.1084 20.499996 46.699872 20.5 46.0625 L 20.5 40.96875 z M 23.78125 40.96875 L 25.375 40.96875 L 25.375 45.25 C 25.374998 45.926761 25.39811 46.361982 25.4375 46.5625 C 25.505531 46.884768 25.652016 47.146812 25.90625 47.34375 C 26.164059 47.537111 26.524736 47.625001 26.96875 47.625 C 27.419917 47.625001 27.770829 47.526369 28 47.34375 C 28.229161 47.157554 28.359695 46.924807 28.40625 46.65625 C 28.452794 46.387698 28.468745 45.9668 28.46875 45.34375 L 28.46875 40.96875 L 30.0625 40.96875 L 30.0625 45.125 C 30.062493 46.070315 30.02343 46.734703 29.9375 47.125 C 29.851556 47.515301 29.670241 47.825196 29.4375 48.09375 C 29.208327 48.362305 28.917963 48.588867 28.53125 48.75 C 28.144526 48.907552 27.623042 48.96875 27 48.96875 C 26.248044 48.96875 25.702797 48.890625 25.3125 48.71875 C 24.925779 48.543295 24.600584 48.338217 24.375 48.0625 C 24.149413 47.783204 24.009114 47.491863 23.9375 47.1875 C 23.833658 46.73633 23.781249 46.068362 23.78125 45.1875 L 23.78125 40.96875 z M 31.71875 40.96875 L 34.09375 40.96875 L 35.53125 46.34375 L 36.9375 40.96875 L 39.3125 40.96875 L 39.3125 48.84375 L 37.84375 48.84375 L 37.84375 42.65625 L 36.28125 48.84375 L 34.75 48.84375 L 33.1875 42.65625 L 33.1875 48.84375 L 31.71875 48.84375 L 31.71875 40.96875 z M 40.90625 40.96875 L 43.46875 40.96875 C 44.435543 40.968758 45.050125 41.014982 45.34375 41.09375 C 45.794916 41.211922 46.195632 41.477546 46.5 41.875 C 46.804355 42.268887 46.937493 42.779628 46.9375 43.40625 C 46.937493 43.889653 46.862949 44.295577 46.6875 44.625 C 46.512038 44.954431 46.272129 45.216475 46 45.40625 C 45.73144 45.592451 45.466792 45.689131 45.1875 45.75 C 44.807938 45.825198 44.250972 45.875003 43.53125 45.875 L 42.5 45.875 L 42.5 48.84375 L 40.90625 48.84375 L 40.90625 40.96875 z M 42.5 42.3125 L 42.5 44.53125 L 43.375 44.53125 C 44.001624 44.531254 44.413733 44.488611 44.625 44.40625 C 44.836258 44.323898 45.006831 44.20671 45.125 44.03125 C 45.24674 43.855799 45.312495 43.639003 45.3125 43.40625 C 45.312495 43.119797 45.230789 42.904954 45.0625 42.71875 C 44.894201 42.532558 44.664058 42.421556 44.40625 42.375 C 44.216467 42.339199 43.854163 42.312507 43.28125 42.3125 L 42.5 42.3125 z "
       transform="translate(0,988.36218)"
       id="rect4106" />
  </g>
</svg>
