<?xml version="1.0" encoding="UTF-8" standalone="no"?>
<!-- Created with Inkscape (http://www.inkscape.org/) -->

<svg
   xmlns:dc="http://purl.org/dc/elements/1.1/"
   xmlns:cc="http://creativecommons.org/ns#"
   xmlns:rdf="http://www.w3.org/1999/02/22-rdf-syntax-ns#"
   xmlns:svg="http://www.w3.org/2000/svg"
   xmlns="http://www.w3.org/2000/svg"
   xmlns:sodipodi="http://sodipodi.sourceforge.net/DTD/sodipodi-0.dtd"
   xmlns:inkscape="http://www.inkscape.org/namespaces/inkscape"
   width="64"
   height="200"
   id="svg4098"
   version="1.1"
   inkscape:version="0.48.3.1 r9886"
   sodipodi:docname="stopBlock.svg">
  <defs
     id="defs4100" />
  <sodipodi:namedview
     id="base"
     pagecolor="#ffffff"
     bordercolor="#666666"
     borderopacity="1.0"
     inkscape:pageopacity="0.0"
     inkscape:pageshadow="2"
     inkscape:zoom="1.979899"
     inkscape:cx="107.96895"
     inkscape:cy="68.957157"
     inkscape:document-units="px"
     inkscape:current-layer="layer1"
     showgrid="false"
     inkscape:window-width="1366"
     inkscape:window-height="718"
     inkscape:window-x="0"
     inkscape:window-y="1"
     inkscape:window-maximized="1" />
  <metadata
     id="metadata4103">
    <rdf:RDF>
      <cc:Work
         rdf:about="">
        <dc:format>image/svg+xml</dc:format>
        <dc:type
           rdf:resource="http://purl.org/dc/dcmitype/StillImage" />
        <dc:title></dc:title>
      </cc:Work>
    </rdf:RDF>
  </metadata>
  <g
     inkscape:label="Layer 1"
     inkscape:groupmode="layer"
     id="layer1"
     transform="translate(0,-852.36218)">
    <path
       style="fill:#000000;fill-opacity:1;stroke:none"
       d="M 0 0 L 0 200 L 64 200 L 64 0 L 0 0 z M 20.71875 124.75 C 21.707027 124.75001 22.471023 124.94174 22.96875 125.375 C 23.470046 125.80828 23.724928 126.4017 23.75 127.125 L 22.15625 127.1875 C 22.088211 126.78288 21.944331 126.48796 21.71875 126.3125 C 21.49674 126.13347 21.166337 126.06251 20.71875 126.0625 C 20.256833 126.06251 19.886391 126.15398 19.625 126.34375 C 19.456703 126.4655 19.374998 126.6084 19.375 126.8125 C 19.374998 126.9987 19.436196 127.18002 19.59375 127.3125 C 19.794268 127.4808 20.289059 127.66114 21.0625 127.84375 C 21.835933 128.02637 22.41243 128.20931 22.78125 128.40625 C 23.15364 128.59961 23.448561 128.84733 23.65625 129.1875 C 23.867506 129.52409 23.968743 129.93978 23.96875 130.4375 C 23.968743 130.88867 23.844394 131.32487 23.59375 131.71875 C 23.343093 132.11263 22.989578 132.40039 22.53125 132.59375 C 22.072912 132.78353 21.496415 132.875 20.8125 132.875 C 19.817055 132.875 19.064777 132.64583 18.53125 132.1875 C 17.997721 131.72559 17.666341 131.06836 17.5625 130.1875 L 19.125 130.03125 C 19.218097 130.55046 19.40462 130.94401 19.6875 131.1875 C 19.973956 131.43099 20.360348 131.53125 20.84375 131.53125 C 21.35579 131.53125 21.742183 131.4336 22 131.21875 C 22.261388 131.00033 22.374995 130.75879 22.375 130.46875 C 22.374995 130.28255 22.329747 130.09766 22.21875 129.96875 C 22.111323 129.83627 21.928381 129.72168 21.65625 129.625 C 21.470048 129.56055 21.037431 129.44597 20.375 129.28125 C 19.522784 129.06999 18.906248 128.8392 18.5625 128.53125 C 18.079101 128.09799 17.843749 127.56055 17.84375 126.9375 C 17.843749 126.53646 17.961913 126.15984 18.1875 125.8125 C 18.416665 125.4616 18.761392 125.18262 19.1875 125 C 19.617185 124.81739 20.113604 124.75001 20.71875 124.75 z M 35.34375 124.75 C 36.503901 124.75001 37.430332 125.09278 38.125 125.8125 C 38.823234 126.53223 39.156242 127.5306 39.15625 128.8125 C 39.156242 130.08366 38.816073 131.09278 38.125 131.8125 C 37.433913 132.52865 36.50032 132.875 35.34375 132.875 C 34.172848 132.875 33.253579 132.52507 32.5625 131.8125 C 31.871418 131.09636 31.53125 130.09701 31.53125 128.84375 C 31.53125 128.04167 31.635091 127.38803 31.875 126.84375 C 32.054035 126.44271 32.317056 126.06869 32.625 125.75 C 32.936522 125.43132 33.256183 125.18523 33.625 125.03125 C 34.115557 124.82358 34.702796 124.75001 35.34375 124.75 z M 24.75 124.875 L 31 124.875 L 31 126.1875 L 28.6875 126.1875 L 28.6875 132.75 L 27.09375 132.75 L 27.09375 126.1875 L 24.75 126.1875 L 24.75 124.875 z M 40.40625 124.875 L 42.9375 124.875 C 43.904293 124.87501 44.550125 124.92123 44.84375 125 C 45.294916 125.11817 45.664382 125.35255 45.96875 125.75 C 46.273105 126.14389 46.437493 126.65463 46.4375 127.28125 C 46.437493 127.76465 46.331699 128.17058 46.15625 128.5 C 45.980788 128.82943 45.772129 129.09147 45.5 129.28125 C 45.23144 129.46745 44.966792 129.59538 44.6875 129.65625 C 44.307938 129.73145 43.750972 129.78125 43.03125 129.78125 L 42 129.78125 L 42 132.75 L 40.40625 132.75 L 40.40625 124.875 z M 35.34375 126.09375 C 34.688473 126.09376 34.182289 126.33008 33.78125 126.78125 C 33.380206 127.22885 33.156248 127.90658 33.15625 128.8125 C 33.156248 129.7041 33.369464 130.38184 33.78125 130.84375 C 34.193031 131.30208 34.709957 131.53125 35.34375 131.53125 C 35.977534 131.53125 36.501622 131.2985 36.90625 130.84375 C 37.314447 130.38542 37.531244 129.69434 37.53125 128.78125 C 37.531244 127.87891 37.334955 127.19402 36.9375 126.75 C 36.543614 126.306 35.999018 126.09376 35.34375 126.09375 z M 42 126.1875 L 42 128.4375 L 42.875 128.4375 C 43.501624 128.4375 43.913733 128.39486 44.125 128.3125 C 44.336258 128.23015 44.506831 128.11296 44.625 127.9375 C 44.74674 127.76205 44.781245 127.54525 44.78125 127.3125 C 44.781245 127.02605 44.699539 126.77995 44.53125 126.59375 C 44.362951 126.40756 44.164058 126.29656 43.90625 126.25 C 43.716467 126.2142 43.322913 126.18751 42.75 126.1875 L 42 126.1875 z M 19.15625 138.625 L 25.40625 138.625 L 25.40625 139.9375 L 23.0625 139.9375 L 23.0625 146.5 L 21.46875 146.5 L 21.46875 139.9375 L 19.15625 139.9375 L 19.15625 138.625 z M 26.375 138.625 L 27.96875 138.625 L 27.96875 146.5 L 26.375 146.5 L 26.375 138.625 z M 29.46875 138.625 L 31.84375 138.625 L 33.28125 144 L 34.6875 138.625 L 37.0625 138.625 L 37.0625 146.5 L 35.59375 146.5 L 35.59375 140.28125 L 34.03125 146.5 L 32.5 146.5 L 30.9375 140.28125 L 30.9375 146.5 L 29.46875 146.5 L 29.46875 138.625 z M 38.65625 138.625 L 44.5 138.625 L 44.5 139.9375 L 40.25 139.9375 L 40.25 141.6875 L 44.1875 141.6875 L 44.1875 143.03125 L 40.25 143.03125 L 40.25 145.15625 L 44.65625 145.15625 L 44.65625 146.5 L 38.65625 146.5 L 38.65625 138.625 z M 17.71875 164 L 32 164 L 46.28125 164 L 39.125 176.375 L 32 188.75 L 24.875 176.375 L 17.71875 164 z "
       transform="translate(0,852.36218)"
       id="rect4106" />
  </g>
</svg>
